<svg width="621" height="500" viewBox="0 0 621 500" fill="none" xmlns="http://www.w3.org/2000/svg">
<path d="M2 2C49.6858 26.5262 73.9625 80.3497 79.0658 133.429C82.2608 166.659 81.7973 199.389 92.4509 231.27C96.5366 243.496 105.113 254.185 111.515 265.274C118.75 277.81 128.048 290.694 139.096 299.905C206.994 356.515 296.775 365.313 376.378 395.451C412.069 408.964 447.946 420.724 482.749 436.966C502.803 446.326 521.885 452.194 542.88 457.828C550.543 459.884 558.885 459.073 566 462" stroke="white" stroke-width="3" stroke-linecap="round" stroke-dasharray="10 10"/>
<path d="M619.514 461.816L576.805 461.027M569.108 437.145L619.218 460.863C619.399 460.948 619.552 461.084 619.658 461.254C619.763 461.424 619.818 461.621 619.814 461.821C619.81 462.022 619.749 462.217 619.636 462.382C619.524 462.548 619.367 462.678 619.182 462.757L568.222 484.609C568.026 484.689 567.81 484.708 567.604 484.662C567.397 484.616 567.209 484.508 567.066 484.352C566.922 484.196 566.83 484 566.801 483.79C566.772 483.581 566.809 483.367 566.905 483.178L576.349 461.946C576.498 461.661 576.579 461.345 576.585 461.023C576.591 460.702 576.522 460.383 576.384 460.093L567.732 438.532C567.64 438.339 567.61 438.122 567.646 437.912C567.682 437.701 567.782 437.506 567.932 437.355C568.083 437.203 568.276 437.101 568.487 437.064C568.697 437.026 568.914 437.055 569.108 437.145Z" stroke="white" stroke-width="2" stroke-linecap="round" stroke-linejoin="round"/>
</svg>
